<svg class="animated" id="freepik_stories-race-car" xmlns="http://www.w3.org/2000/svg" viewBox="0 0 750 500" version="1.1" xmlns:xlink="http://www.w3.org/1999/xlink" xmlns:svgjs="http://svgjs.com/svgjs"><style>svg#freepik_stories-race-car:not(.animated) .animable {opacity: 0;}svg#freepik_stories-race-car.animated #freepik--Car--inject-40 {animation: 1.6s 1 forwards cubic-bezier(.36,-0.01,.5,1.38) slideRight;animation-delay: 0s;}            @keyframes slideRight {                0% {                    opacity: 0;                    transform: translateX(30px);                }                100% {                    opacity: 1;                    transform: translateX(0);                }            }        </style><g id="freepik--background-simple--inject-40" class="animable" style="transform-origin: 374.57px 222.232px;"><path d="M601,127.63,599,124.44C582.71,97.55,553.2,81.33,522.08,83.3a81.38,81.38,0,0,0-11.91,1.63c-28.28,6.06-52.9,27.45-63.1,54.85-6,16.11-7.68,34.66-19.06,47.45-14.82,16.64-40,17.17-62.1,16.48s-47.29-.11-62,16.6c-9.23,10.47-12.17,25.35-11.42,39.37,2,37.1,27.82,70.28,60.7,86.77s71.6,18,107.59,10.71C511.15,347,559.09,319.09,587.91,276S624,174.16,601,127.63Z" style="fill: rgb(245, 245, 245); transform-origin: 453.504px 222.232px;" id="eljvr45wzsfu" class="animable"></path><circle cx="199.92" cy="156.82" r="65.41" style="fill: rgb(245, 245, 245); transform-origin: 199.92px 156.82px;" id="el32at26g8maj" class="animable"></circle></g><g id="freepik--Floor--inject-40" class="animable" style="transform-origin: 375px 411.82px;"><path d="M729.17,411.82c0,.14-158.58.26-354.15.26S20.83,412,20.83,411.82s158.55-.26,354.19-.26S729.17,411.68,729.17,411.82Z" style="fill: rgb(38, 50, 56); transform-origin: 375px 411.82px;" id="el0qaw64tfjy3j" class="animable"></path></g><g id="freepik--Plants--inject-40" class="animable" style="transform-origin: 351.005px 443.63px;"><path d="M361.49,447a78.27,78.27,0,0,1-5.78-6.93,80.9,80.9,0,0,1-5.38-7.26,78.27,78.27,0,0,1,5.78,6.93A79.27,79.27,0,0,1,361.49,447Z" style="fill: rgb(38, 50, 56); transform-origin: 355.91px 439.905px;" id="elfs4wxq7cfsr" class="animable"></path><path d="M365,424.48a26.78,26.78,0,0,1-.08,3.36c-.09,2.07-.14,4.93,0,8.08s.41,6,.67,8.06a29.56,29.56,0,0,1,.36,3.34,2.93,2.93,0,0,1-.26-.87c-.13-.57-.3-1.39-.47-2.42a67.62,67.62,0,0,1-.82-8.09,65.69,65.69,0,0,1,.16-8.12c.09-1,.18-1.88.27-2.45A3.23,3.23,0,0,1,365,424.48Z" style="fill: rgb(38, 50, 56); transform-origin: 365.146px 435.9px;" id="elzvoselypz4q" class="animable"></path><path d="M375.86,432.87c.14.08-1.35,2.82-2.52,6.45s-1.6,6.73-1.76,6.7a6.88,6.88,0,0,1,.13-2,30.13,30.13,0,0,1,3.05-9.38A6.88,6.88,0,0,1,375.86,432.87Z" style="fill: rgb(38, 50, 56); transform-origin: 373.713px 439.445px;" id="elbndyejqtdv" class="animable"></path><path d="M599.67,458.46a159.33,159.33,0,0,1-11.16-14.2,82.4,82.4,0,0,1,5.79,6.94A78.59,78.59,0,0,1,599.67,458.46Z" style="fill: rgb(38, 50, 56); transform-origin: 594.09px 451.36px;" id="elt3h402db3uq" class="animable"></path><path d="M603.22,435.9a26.78,26.78,0,0,1-.08,3.36c-.09,2.07-.14,4.93,0,8.08s.42,6,.67,8.06a26.9,26.9,0,0,1,.36,3.34,2.93,2.93,0,0,1-.26-.87c-.13-.57-.3-1.4-.47-2.42a67.62,67.62,0,0,1-.82-8.09,65.91,65.91,0,0,1,.16-8.13c.09-1,.18-1.87.27-2.44A3.11,3.11,0,0,1,603.22,435.9Z" style="fill: rgb(38, 50, 56); transform-origin: 603.366px 447.32px;" id="elmjot46nuxzl" class="animable"></path><path d="M614,444.29c.14.08-1.35,2.82-2.52,6.45s-1.6,6.73-1.76,6.7a6.88,6.88,0,0,1,.13-2,29.47,29.47,0,0,1,1.14-4.82,30,30,0,0,1,1.91-4.56A6.88,6.88,0,0,1,614,444.29Z" style="fill: rgb(38, 50, 56); transform-origin: 611.853px 450.865px;" id="elzag5d75q0ta" class="animable"></path><path d="M99.15,462.51a80.47,80.47,0,0,1-5.79-6.94A76.41,76.41,0,0,1,88,448.31a79.4,79.4,0,0,1,5.78,6.94A77.7,77.7,0,0,1,99.15,462.51Z" style="fill: rgb(38, 50, 56); transform-origin: 93.575px 455.41px;" id="elndygidexmof" class="animable"></path><path d="M102.7,439.94a26.78,26.78,0,0,1-.08,3.36c-.09,2.07-.14,4.93,0,8.09s.41,6,.66,8.05a32.07,32.07,0,0,1,.37,3.34,2.67,2.67,0,0,1-.26-.87c-.14-.56-.3-1.39-.47-2.42a67.3,67.3,0,0,1-.66-16.21c.09-1,.18-1.87.27-2.45A3.37,3.37,0,0,1,102.7,439.94Z" style="fill: rgb(38, 50, 56); transform-origin: 102.847px 451.36px;" id="eln8dxkd21kxo" class="animable"></path><path d="M113.52,448.34c.14.07-1.35,2.81-2.52,6.45s-1.6,6.72-1.76,6.7a6.55,6.55,0,0,1,.13-2.05,29.62,29.62,0,0,1,1.14-4.81,30,30,0,0,1,1.91-4.56A6.34,6.34,0,0,1,113.52,448.34Z" style="fill: rgb(38, 50, 56); transform-origin: 111.37px 454.915px;" id="elt49vg9snvve" class="animable"></path></g><g id="freepik--Car--inject-40" class="animable animator-active" style="transform-origin: 375.007px 335.112px;"><polygon points="606.62 398.99 140.94 398.99 140.94 330.04 206.47 316.6 511.68 314.32 606.62 330.04 606.62 398.99" style="fill: rgb(38, 50, 56); transform-origin: 373.78px 356.655px;" id="elertkdpfvfe" class="animable"></polygon><g id="elh9lv6z212lr"><g style="opacity: 0.3; transform-origin: 373.78px 356.655px;" class="animable"><polygon points="606.62 398.99 140.94 398.99 140.94 330.04 206.47 316.6 511.68 314.32 606.62 330.04 606.62 398.99" id="elgzqxhr5am9n" class="animable" style="transform-origin: 373.78px 356.655px;"></polygon></g></g><path d="M535.59,290.62s29-27,46.33-30.69,75.28,0,75.28,0l2.58,25.3L629.3,289l-31.61-12.74-10.59,9.88,1.41,18.6-37.7-6.42Z" style="fill: rgb(38, 50, 56); transform-origin: 597.685px 281.515px;" id="el6m6zerj5l8" class="animable"></path><path d="M114.7,379.47,115,363c-1.56.69-6.79-1.4-5.21-6.09,7.27-21.47,56.15-38.55,86.54-43.38s46.06-3.2,46.06-3.2c1.44.7,71.4-36.18,103.23-41s42-6,91.65.77,143.24,30.38,154.81,34.53,33.46,4.53,33.46,4.53c16.83,10.76,10.08,48.55,10.25,50.68l6,2.46-11.73,42.34s-4.75,1.44-51.76,2.25a45.57,45.57,0,1,0-51.12.84c-18.61.29-30.5-.23-30.37-.36.35-.34-174.81.47-272.51.58a45.58,45.58,0,1,0-49.11.06L160,408l-66.8-3.39C80.13,397.78,114.46,378.83,114.7,379.47Z" style="fill: rgb(224, 224, 224); transform-origin: 366.011px 336.689px;" id="elel3pzv9c3su" class="animable"></path><path d="M299,321.37c-3.16-5,9.62-12.42,9.62-12.42l-58.68-2c-4.38,2.05-7,3.24-7.32,3.1,0,0-15.68-1.61-46.06,3.21S116.28,335,109,356.43c-1.58,4.69,4.3,7.62,5.86,6.93l-.17,16.11c10.72-6.78,31.3-20.21,38.7-27.52a15,15,0,0,1,5.81-3A45.57,45.57,0,0,1,200,323.79c15.9,0,27.83,9.42,37.63,20.07L413,336S302.14,326.4,299,321.37Z" style="fill: rgb(176, 190, 197); transform-origin: 260.866px 343.21px;" id="elvfa1c9uec2" class="animable"></path><path d="M509.78,370.06s0-.08,0-.11h0a42.17,42.17,0,0,1,84.33-1.22h0s0,.07,0,.11v.3a42.18,42.18,0,1,1-84.36,1.22c0-.08,0-.16,0-.24S509.78,370.08,509.78,370.06Z" style="fill: rgb(38, 50, 56); transform-origin: 551.932px 369.664px;" id="eloekhugv2njs" class="animable"></path><circle cx="551.96" cy="369.75" r="26.77" style="fill: rgb(245, 245, 245); transform-origin: 551.96px 369.75px;" id="elyrnmvwseh6o" class="animable"></circle><circle cx="551.96" cy="369.75" r="25.27" style="fill: rgb(224, 224, 224); transform-origin: 551.96px 369.75px;" id="elwosbvrsoa6" class="animable"></circle><circle cx="551.96" cy="369.75" r="19.84" style="fill: rgb(38, 50, 56); transform-origin: 551.96px 369.75px;" id="elxhr8h6e6di" class="animable"></circle><path d="M540,388.46c.8-1.28,24.41-33.52,25.52-34.84l-1-.8-.86-1.29c-.2.14-26,35-26.26,35.89l1.35.34Z" style="fill: rgb(224, 224, 224); transform-origin: 551.46px 369.995px;" id="el0jofdaelp5sv" class="animable"></path><path d="M531.05,378.87c1.39-.58,39.34-13.1,41-13.54l-.31-1.2,0-1.55h0c-.28,0-41.51,13.33-42.24,13.95l1.81,2.13-.9-1.06Z" style="fill: rgb(224, 224, 224); transform-origin: 550.775px 370.725px;" id="elulkrg35s9p" class="animable"></path><path d="M572.9,378.87l.46-1.16,1-1.22c-.2-.15-41.16-13.69-42.31-13.69h0l.1,1.4-.28,1.36C533.28,365.92,571.3,378.24,572.9,378.87Z" style="fill: rgb(224, 224, 224); transform-origin: 553.115px 370.835px;" id="elq7sfwjw7wil" class="animable"></path><path d="M563.87,390.6l.75-1.18,1-.93c-1-1.16-24.11-33.73-25-35.2l-1.06.65-1.49.41C538.15,354.59,563.06,390.09,563.87,390.6Z" style="fill: rgb(224, 224, 224); transform-origin: 551.845px 371.945px;" id="elx1odxy2goc" class="animable"></path><path d="M549.92,392,552.5,391l-1.29.53,1.39-.16c-.12-1.5-.27-41.46-.16-43.19l-1.25-.07-1.46-.53C549.65,347.78,549.56,391.14,549.92,392Z" style="fill: rgb(224, 224, 224); transform-origin: 551.129px 369.79px;" id="eldq37gn8blf9" class="animable"></path><path d="M543,369.73a8.09,8.09,0,1,0,8.09-8.08A8.09,8.09,0,0,0,543,369.73Z" style="fill: rgb(69, 90, 100); transform-origin: 551.09px 369.74px;" id="elmdi08l2yfh" class="animable"></path><path d="M542.35,369.73a8.78,8.78,0,1,1,8.78,8.78A8.79,8.79,0,0,1,542.35,369.73Zm1.39,0a7.39,7.39,0,1,0,7.39-7.39A7.39,7.39,0,0,0,543.74,369.73Z" style="fill: rgb(224, 224, 224); transform-origin: 551.13px 369.73px;" id="ell1au92uo8ed" class="animable"></path><path d="M584.78,369.75h3.73a37.35,37.35,0,0,0-37.3-37.3v3.73A33.61,33.61,0,0,1,584.78,369.75Z" style="fill: rgb(176, 190, 197); transform-origin: 569.86px 351.1px;" id="elt1hss5k4r9" class="animable"></path><path d="M514.37,375.61l3.68-.58a33.18,33.18,0,0,1-.42-5.28h-3.72A36.86,36.86,0,0,0,514.37,375.61Z" style="fill: rgb(176, 190, 197); transform-origin: 515.98px 372.68px;" id="el0djinxz57jra" class="animable"></path><path d="M528.34,399.22l2.28-2.94a33.88,33.88,0,0,0,7.23,4.29L536.37,404A37.2,37.2,0,0,1,528.34,399.22ZM517,384.58l3.42-1.48a33.63,33.63,0,0,0,4.29,7.23l-2.94,2.29A37.31,37.31,0,0,1,517,384.58Z" style="fill: rgb(176, 190, 197); transform-origin: 527.425px 393.55px;" id="el9odijc9m9u" class="animable"></path><path d="M551.21,407.05v-3.72a34.48,34.48,0,0,1-5.28-.41l-.58,3.67A37,37,0,0,0,551.21,407.05Z" style="fill: rgb(176, 190, 197); transform-origin: 548.28px 404.985px;" id="elc0moswf1r6t" class="animable"></path><path d="M157.74,369.81s0-.08,0-.11h0a42.17,42.17,0,0,1,84.33-1.22h0s0,.07,0,.11,0,.16,0,.24,0,0,0,.07a42.18,42.18,0,0,1-84.36,1.21,1.92,1.92,0,0,0,0-.24Z" style="fill: rgb(38, 50, 56); transform-origin: 199.892px 369.403px;" id="elxbb3gl4tpy" class="animable"></path><g id="el9rloqt9xyud"><circle cx="199.92" cy="369.5" r="26.78" style="fill: rgb(245, 245, 245); transform-origin: 199.92px 369.5px; transform: rotate(-80.93deg);" class="animable"></circle></g><g id="el1cwc01anbj6"><circle cx="199.92" cy="369.5" r="25.27" style="fill: rgb(224, 224, 224); transform-origin: 199.92px 369.5px; transform: rotate(-45deg);" class="animable"></circle></g><g id="ellpwopdd2es"><circle cx="199.92" cy="369.5" r="19.84" style="fill: rgb(38, 50, 56); transform-origin: 199.92px 369.5px; transform: rotate(-46.32deg);" class="animable"></circle></g><path d="M188,388.21c.8-1.28,24.41-33.51,25.52-34.84l-1-.8-.86-1.29c-.2.14-26,35-26.26,35.89l1.35.34Z" style="fill: rgb(224, 224, 224); transform-origin: 199.46px 369.745px;" id="eln4r3i29bsvr" class="animable"></path><path d="M179,378.62c1.39-.58,39.34-13.1,41-13.53l-.32-1.21.06-1.55h0c-.28,0-41.51,13.33-42.24,13.95l1.81,2.13-.9-1.06Z" style="fill: rgb(224, 224, 224); transform-origin: 198.75px 370.475px;" id="el1d7idfm898p" class="animable"></path><path d="M220.86,378.62l.46-1.16,1-1.22c-.2-.15-41.16-13.68-42.31-13.68h0l.1,1.39-.29,1.36C181.24,365.68,219.26,378,220.86,378.62Z" style="fill: rgb(224, 224, 224); transform-origin: 201.07px 370.59px;" id="el3xviisqljxq" class="animable"></path><path d="M211.83,390.35l.75-1.18,1-.93c-1-1.16-24.11-33.73-25-35.2l-1.06.66-1.49.4C186.11,354.34,211,389.84,211.83,390.35Z" style="fill: rgb(224, 224, 224); transform-origin: 199.805px 371.695px;" id="ell9zxs7qkauf" class="animable"></path><path d="M197.88,391.77l2.58-1.06-1.29.53,1.38-.16c-.11-1.5-.26-41.46-.16-43.19l-1.24-.07-1.46-.53C197.61,347.53,197.51,390.89,197.88,391.77Z" style="fill: rgb(224, 224, 224); transform-origin: 199.082px 369.53px;" id="elyz34xmip6d" class="animable"></path><g id="elw770xqgwghs"><circle cx="199.08" cy="369.48" r="8.08" style="fill: rgb(69, 90, 100); transform-origin: 199.08px 369.48px; transform: rotate(-67.62deg);" class="animable"></circle></g><path d="M190.3,369.48a8.78,8.78,0,1,1,8.78,8.78A8.79,8.79,0,0,1,190.3,369.48Zm1.4,0a7.39,7.39,0,1,0,7.38-7.38A7.39,7.39,0,0,0,191.7,369.48Z" style="fill: rgb(224, 224, 224); transform-origin: 199.08px 369.48px;" id="el1zi94z3n3jr" class="animable"></path><path d="M232.74,369.5h3.73a37.35,37.35,0,0,0-37.3-37.3v3.73A33.61,33.61,0,0,1,232.74,369.5Z" style="fill: rgb(176, 190, 197); transform-origin: 217.82px 350.85px;" id="elo0s34glwav" class="animable"></path><path d="M162.33,375.36l3.67-.58a34.39,34.39,0,0,1-.41-5.28h-3.72A36.86,36.86,0,0,0,162.33,375.36Z" style="fill: rgb(176, 190, 197); transform-origin: 163.935px 372.43px;" id="elnnyv5ml2ou" class="animable"></path><path d="M176.29,399l2.29-2.94a33.63,33.63,0,0,0,7.23,4.29l-1.49,3.41A37.45,37.45,0,0,1,176.29,399Zm-11.36-14.63,3.42-1.49a33.39,33.39,0,0,0,4.29,7.23l-2.95,2.29A37.86,37.86,0,0,1,164.93,384.34Z" style="fill: rgb(176, 190, 197); transform-origin: 175.37px 393.32px;" id="el6hl19s7tloy" class="animable"></path><path d="M199.17,406.8v-3.72a34.39,34.39,0,0,1-5.28-.41l-.58,3.68A38.16,38.16,0,0,0,199.17,406.8Z" style="fill: rgb(176, 190, 197); transform-origin: 196.24px 404.735px;" id="elkunq2nmsrl9" class="animable"></path><path d="M249,369.73c0-.15,57.12-.26,127.56-.26s127.58.11,127.58.26-57.11.26-127.58.26S249,369.87,249,369.73Z" style="fill: rgb(38, 50, 56); transform-origin: 376.57px 369.73px;" id="el80b4bxegfnm" class="animable"></path><path d="M470.63,336.65a5.11,5.11,0,0,1-.51-1.16c-.29-.76-.67-1.88-1.1-3.27-.88-2.78-2-6.65-3.28-10.9s-2.53-8.07-3.6-10.76c-.26-.68-.55-1.27-.77-1.8s-.46-.93-.66-1.32a6.35,6.35,0,0,1-.64-1.08,5.16,5.16,0,0,1,.82,1c.2.36.47.78.75,1.3s.55,1.11.84,1.78a109.48,109.48,0,0,1,3.76,10.76c1.28,4.26,2.35,8.14,3.13,10.94.37,1.32.69,2.43.94,3.32A6.19,6.19,0,0,1,470.63,336.65Z" style="fill: rgb(38, 50, 56); transform-origin: 465.35px 321.505px;" id="elym5872sq1re" class="animable"></path><path d="M501.14,307.35a3.75,3.75,0,0,1,.74-.29l2.17-.74c.94-.32,2.1-.69,3.46-1.08s2.89-.88,4.61-1.32c3.43-.94,7.56-1.9,12.17-2.8s9.74-1.67,15.14-2.24,10.57-.82,15.27-.92,8.94,0,12.49.25c1.78.07,3.38.23,4.79.34s2.61.23,3.6.35l2.27.28a4.65,4.65,0,0,1,.79.13,4,4,0,0,1-.8,0l-2.28-.17c-1-.09-2.2-.2-3.61-.27s-3-.21-4.78-.26c-3.54-.17-7.77-.22-12.46-.14s-9.84.41-15.23,1-10.48,1.35-15.1,2.19-8.73,1.8-12.16,2.69c-1.73.41-3.27.87-4.63,1.24s-2.53.71-3.48,1l-2.19.64A4.41,4.41,0,0,1,501.14,307.35Z" style="fill: rgb(38, 50, 56); transform-origin: 539.89px 302.636px;" id="elnyejvnknuak" class="animable"></path><path d="M329.45,272.6l20.9.54L286,309.2l-43.86.47C241.54,309.2,301.62,280.9,329.45,272.6Z" style="fill: rgb(69, 90, 100); transform-origin: 296.243px 291.135px;" id="el7cjnkq8c1lp" class="animable"></path><path d="M494.07,296.31l-34,10.05L281.42,309.2s56.23-36.36,74.89-37.59c36-2.36,112.5,9.58,137.68,16.42A4.3,4.3,0,0,1,494.07,296.31Z" style="fill: rgb(38, 50, 56); transform-origin: 389.294px 290.253px;" id="elun9fix5ie4" class="animable"></path><path d="M436.39,302.61,440.14,282s-52.07-7.39-81.95-7.65c-10.15-.09-36.73,16.35-49.69,26.07l-8.18,6Z" style="fill: rgb(69, 90, 100); transform-origin: 370.23px 290.385px;" id="ell2nhmyv4b09" class="animable"></path><path d="M635.51,326.36s-12.89-2.15-16.91-4.63c-2.85-1.77-17.32-12.31-17.32-12.31l24.75.39s3.49,1,6.79,7.82A31.36,31.36,0,0,1,635.51,326.36Z" style="fill: rgb(176, 190, 197); transform-origin: 618.395px 317.89px;" id="elt365ky2dbwm" class="animable"></path><g id="eluxdmcvbdkjr"><rect x="426.48" y="352.04" width="2.17" height="14.31" rx="1.03" style="fill: rgb(38, 50, 56); transform-origin: 427.565px 359.195px; transform: rotate(180deg);" class="animable"></rect></g><g id="el265d1wvntqf"><rect x="421.83" y="352.04" width="2.17" height="14.31" rx="1.03" style="fill: rgb(38, 50, 56); transform-origin: 422.915px 359.195px; transform: rotate(180deg);" class="animable"></rect></g><g id="el8yxbevg8esa"><rect x="417.18" y="352.04" width="2.17" height="14.31" rx="1.03" style="fill: rgb(38, 50, 56); transform-origin: 418.265px 359.195px; transform: rotate(180deg);" class="animable"></rect></g><g id="elor1zkxa7mf"><rect x="412.53" y="352.04" width="2.17" height="14.31" rx="1.03" style="fill: rgb(38, 50, 56); transform-origin: 413.615px 359.195px; transform: rotate(180deg);" class="animable"></rect></g><g id="elgmi8g67xnyp"><rect x="407.88" y="352.04" width="2.17" height="14.31" rx="1.03" style="fill: rgb(38, 50, 56); transform-origin: 408.965px 359.195px; transform: rotate(180deg);" class="animable"></rect></g><g id="el7fw3rw2wxzi"><rect x="403.23" y="352.04" width="2.17" height="14.31" rx="1.03" style="fill: rgb(38, 50, 56); transform-origin: 404.315px 359.195px; transform: rotate(180deg);" class="animable"></rect></g><path d="M476.36,276.26c-.07,0,.68-5.57-2-5.66s-20.86,1.4-20.86,1.4Z" style="fill: rgb(224, 224, 224); transform-origin: 464.953px 273.428px;" id="elaxlzd382mgt" class="animable"></path><g id="elsow7jwsmjn"><g style="opacity: 0.3; transform-origin: 263.17px 317.63px;" class="animable"><path d="M259.86,317.63a3.31,3.31,0,1,0,3.31-3.31A3.31,3.31,0,0,0,259.86,317.63Z" id="elehvr12wi5x9" class="animable" style="transform-origin: 263.17px 317.63px;"></path></g></g><g id="el9i75dsgt6vb"><g style="opacity: 0.3; transform-origin: 251.31px 317.63px;" class="animable"><path d="M248,317.63a3.31,3.31,0,1,0,3.31-3.31A3.31,3.31,0,0,0,248,317.63Z" id="el2ohe9x8pp5" class="animable" style="transform-origin: 251.31px 317.63px;"></path></g></g><path d="M476.68,335.9a47.73,47.73,0,0,1-5.21-.14,90.56,90.56,0,0,1,10.42,0A47.88,47.88,0,0,1,476.68,335.9Z" style="fill: rgb(38, 50, 56); transform-origin: 476.68px 335.764px;" id="elqj8x3i23iz" class="animable"></path><path d="M589.46,328.8A5.34,5.34,0,0,1,589,328a21.37,21.37,0,0,0-1.4-2.1,22.45,22.45,0,0,0-7.05-5.95,40.57,40.57,0,0,0-13.09-4.16,108.94,108.94,0,0,0-16.85-1.55,63.6,63.6,0,0,0-16.75,2,47,47,0,0,0-12.63,5.44,38.9,38.9,0,0,0-7.25,5.82c-.76.79-1.34,1.42-1.71,1.87a5.93,5.93,0,0,1-.6.65,5.08,5.08,0,0,1,.52-.72c.34-.47.9-1.12,1.64-1.94a37,37,0,0,1,7.2-6,46.07,46.07,0,0,1,12.71-5.59,62.36,62.36,0,0,1,16.87-2.05,105.85,105.85,0,0,1,16.93,1.6,40.1,40.1,0,0,1,13.19,4.31,22.06,22.06,0,0,1,7,6.15A13,13,0,0,1,589.46,328.8Z" style="fill: rgb(38, 50, 56); transform-origin: 550.565px 321.866px;" id="elm1egs03m0e" class="animable"></path><path d="M640.61,361.68c-13.1,10-28.47,16-44.47,20l-.55,1.51S591.1,398,578,407c0,0,42.42.87,52.33-2.53l11.73-42.34Z" style="fill: rgb(38, 50, 56); transform-origin: 610.03px 384.39px;" id="elwioylaekyki" class="animable"></path><g id="el7tcmin0f5xg"><g style="opacity: 0.3; transform-origin: 608.01px 335.45px;" class="animable"><path d="M590.18,344.25c12.34-3.47,31.77-9.12,45.33-17.6-17.78,2.06-40.56,6.31-55,7.19A69.7,69.7,0,0,1,590.18,344.25Z" id="eljs3l61zcnvk" class="animable" style="transform-origin: 608.01px 335.45px;"></path></g></g><path d="M297.78,308.78c0,.05-.72.63-2,1.82a54,54,0,0,0-4.85,5.46,105.83,105.83,0,0,0-6.22,8.89c-1.09,1.72-2.18,3.57-3.27,5.5a57.67,57.67,0,0,0-3,6.15,12.12,12.12,0,0,0-.61,6.64c.34,2.18.95,4.24,1.43,6.23.92,4,1.55,7.63,2.17,10.67s1,5.44,1.38,7.2c.14.81.26,1.46.35,2a3.25,3.25,0,0,1,.08.69,3.12,3.12,0,0,1-.19-.67l-.44-1.94c-.38-1.75-.9-4.19-1.54-7.17s-1.34-6.65-2.27-10.62c-.5-2-1.12-4-1.47-6.27a12.66,12.66,0,0,1,.62-6.91,56.85,56.85,0,0,1,3.09-6.2c1.09-1.95,2.2-3.8,3.31-5.52a96.2,96.2,0,0,1,6.33-8.86,46.91,46.91,0,0,1,5-5.37,17.77,17.77,0,0,1,1.54-1.28A5.49,5.49,0,0,1,297.78,308.78Z" style="fill: rgb(38, 50, 56); transform-origin: 287.443px 339.405px;" id="el5k8gt885c8s" class="animable"></path><path d="M155.83,324s-4.49,8.09-9.85,13.1-30.49,9.25-30.49,9.25,5.24-5.76,18.55-13.43A95.91,95.91,0,0,1,155.83,324Z" style="fill: rgb(224, 224, 224); transform-origin: 135.66px 335.175px;" id="els77tulpkwe" class="animable"></path><path d="M231,402.3H392.46s39.26-18.79,47.91-21.74,24.49-1.29,24.49-1.29l42.53-.37c3,13,9.58,21.34,20.26,28.91L223.48,408Z" style="fill: rgb(176, 190, 197); transform-origin: 375.565px 393.402px;" id="elm6eec06rnp" class="animable"></path><path d="M240.1,334.29s-.08,0-.21-.15l-.58-.47c-.52-.41-1.22-1.08-2.23-1.82a60.23,60.23,0,0,0-8.84-5.75,65.74,65.74,0,0,0-6.62-3,64.64,64.64,0,0,0-8-2.46,57.51,57.51,0,0,0-37.43,3.57,59.21,59.21,0,0,0-13.3,8.17,59.88,59.88,0,0,0-7.59,7.32c-.85.92-1.41,1.71-1.85,2.21l-.48.57q-.17.19-.18.18l.14-.21.44-.61c.41-.52,1-1.33,1.77-2.27a55.92,55.92,0,0,1,7.52-7.47,63.23,63.23,0,0,1,5.92-4.32,64.24,64.24,0,0,1,7.41-4,57.32,57.32,0,0,1,37.74-3.6,58.53,58.53,0,0,1,14.66,5.65,55.43,55.43,0,0,1,8.8,5.91c1,.77,1.67,1.47,2.17,1.9l.55.51C240.05,334.22,240.11,334.28,240.1,334.29Z" style="fill: rgb(38, 50, 56); transform-origin: 196.446px 330.586px;" id="elrt1h5v7vbm" class="animable"></path><polygon points="370.23 271.33 335.57 270.81 329.45 272.6 351.86 273.79 370.23 271.33" style="fill: rgb(38, 50, 56); transform-origin: 349.84px 272.3px;" id="elni27plzpla" class="animable"></polygon><path d="M440.26,306.37c-.14,0,.66-8.06,1.78-18s2.16-17.91,2.3-17.89-.65,8.05-1.78,18S440.41,306.38,440.26,306.37Z" style="fill: rgb(69, 90, 100); transform-origin: 442.3px 288.425px;" id="elcnpx6lfaghd" class="animable"></path><path d="M247,394.24a3,3,0,0,1,.19-.56c.16-.41.37-.92.62-1.56.14-.34.29-.71.46-1.11s.3-.87.47-1.36c.33-1,.76-2.07,1.07-3.33.17-.63.35-1.28.54-2s.31-1.41.48-2.15c.36-1.49.56-3.1.82-4.79a59.73,59.73,0,0,0-1.35-22.12c-.46-1.65-.86-3.23-1.39-4.65-.26-.72-.47-1.43-.74-2.08s-.53-1.28-.77-1.88c-.47-1.22-1-2.25-1.47-3.18-.22-.46-.42-.9-.63-1.29l-.59-1.05-.81-1.47a2.83,2.83,0,0,1-.25-.53,2.12,2.12,0,0,1,.34.48c.24.37.53.84.89,1.42.2.31.41.66.64,1s.43.82.67,1.28a34.8,34.8,0,0,1,1.54,3.16l.82,1.88c.28.66.5,1.36.77,2.08.55,1.44,1,3,1.45,4.68a58,58,0,0,1,1.35,22.3c-.27,1.7-.49,3.33-.87,4.82-.18.75-.31,1.48-.51,2.16s-.39,1.34-.58,2c-.33,1.27-.79,2.36-1.14,3.33-.19.49-.35.94-.52,1.35l-.5,1.1-.72,1.52A2.12,2.12,0,0,1,247,394.24Z" style="fill: rgb(38, 50, 56); transform-origin: 248.142px 366.685px;" id="ely7v5nwgix4" class="animable"></path><path d="M306,362.3l3.85,7.43h-8.07l-3.26-6.41h-1.91l-1.15,6.41h-7.77l4.61-25.5h10.34c6.09,0,9.58,3.1,9.58,8.38A10,10,0,0,1,306,362.3Zm-4.55-11.44h-2.6l-1.08,6h3.19a3.09,3.09,0,0,0,3.39-3.39C304.3,351.63,303.18,350.86,301.4,350.86Z" style="fill: rgb(38, 50, 56); transform-origin: 299.96px 356.98px;" id="el8yylzzegthx" class="animable"></path><path d="M329,365.29h-8.79l-2.3,4.44h-8.2l14.68-25.5H332l5.47,25.5h-7.74Zm-1.08-6.2-1.12-6.52-3.4,6.52Z" style="fill: rgb(38, 50, 56); transform-origin: 323.59px 356.98px;" id="elmhquw6lrr1r" class="animable"></path><path d="M339.66,358.91c0-9,6-15.26,14.56-15.26,4.41,0,8,1.82,9.71,5.1l-5.6,4.84a5,5,0,0,0-4.61-3c-3.65,0-6.22,3.2-6.22,7.75,0,3,1.88,5,4.74,5,1.81,0,3.56-.83,5.14-3l4.57,4.85c-2.8,3.79-6.22,5.06-10.47,5.06C344.34,370.31,339.66,365.69,339.66,358.91Z" style="fill: rgb(38, 50, 56); transform-origin: 351.795px 356.95px;" id="elxzletrp7my" class="animable"></path><path d="M373.94,350.72l-.53,3h9.75L382,359.89h-9.78l-.6,3.36h11.56L382,369.73H362.87l4.61-25.5h18.74L385,350.72Z" style="fill: rgb(38, 50, 56); transform-origin: 374.545px 356.98px;" id="el9z07007lrln" class="animable"></path><path d="M359.69,389.59c0-9.61,5.27-16.68,12.48-16.68,5.4,0,8.92,3.64,8.92,10,0,9.62-5.27,16.68-12.48,16.68C363.21,399.57,359.69,395.93,359.69,389.59Zm13.63-6.48c0-2.51-.82-3.32-1.94-3.32-2.7,0-3.92,6.2-3.92,9.58,0,2.52.82,3.32,1.94,3.32C372.1,392.69,373.32,386.5,373.32,383.11Z" style="fill: rgb(176, 190, 197); transform-origin: 370.39px 386.25px;" id="elnsprb4n0mif" class="animable"></path><path d="M401,378.77l-5.27,5a6.34,6.34,0,0,1,4.38,6.23c0,5.5-5,9.54-11.69,9.54a14.81,14.81,0,0,1-8.89-2.66l3.52-6a10.5,10.5,0,0,0,5.9,1.86c2.14,0,3.32-.77,3.32-2.19,0-1-.72-1.53-2.3-1.53h-3.2l1-5.28,4-3.82h-8.17l1.18-6.49h17.19Z" style="fill: rgb(176, 190, 197); transform-origin: 390.75px 386.488px;" id="el8gfcyd9j6ok" class="animable"></path><g id="eluhcmaevh22s"><g style="opacity: 0.3; transform-origin: 281.731px 354.77px;" class="animable"><path d="M247.62,346.74s68.61,9.49,68.22,14.91l-63.49,1.15S249.16,350,247.62,346.74Z" id="elpo27e2oijk" class="animable" style="transform-origin: 281.731px 354.77px;"></path></g></g><rect x="612.14" y="264.72" width="28.9" height="6.99" style="fill: rgb(176, 190, 197); transform-origin: 626.59px 268.215px;" id="elqjhk10nsijk" class="animable"></rect><rect x="644.52" y="264.72" width="5.55" height="6.99" style="fill: rgb(176, 190, 197); transform-origin: 647.295px 268.215px;" id="elrh71oxx3z8c" class="animable"></rect><path d="M658.61,273.76a.79.79,0,0,1-.25,0l-.73,0-2.82.05-10.37.08-34.19.08H596.31l.14,0-14.34,9.37.08-.1c-1.8,5-3.27,9-4.3,11.88l-1.2,3.24c-.14.34-.24.62-.33.84a1.47,1.47,0,0,1-.13.28,1.59,1.59,0,0,1,.07-.3l.28-.86c.26-.79.63-1.88,1.1-3.27,1-2.87,2.41-6.95,4.14-11.94l0-.07,0,0,14.28-9.46.07,0h14l34.19.07,10.37.09,2.82,0,.73,0A.79.79,0,0,1,658.61,273.76Z" style="fill: rgb(69, 90, 100); transform-origin: 617.42px 286.53px;" id="eljmgyomv6fhk" class="animable"></path><path d="M464.94,332.45s-.19,0-.58.06l-1.72.12L456,333l-24.36,1.39-80.36,4.29c-31.4,1.6-59.82,3-80.4,3.87l-24.37,1-6.63.23-1.72.05h-.59l.58-.05,1.73-.09,6.62-.33,24.36-1.17,80.39-4,80.37-4.14L456,332.84l6.62-.31,1.73-.07Z" style="fill: rgb(38, 50, 56); transform-origin: 351.255px 338.14px;" id="el60s18yjug09" class="animable"></path><g id="elhn3ipncia7"><g style="opacity: 0.3; transform-origin: 549.71px 317.163px;" class="animable"><path d="M513.91,326.65s9.92-17.88,32.09-18.88,35.89,6.16,39.51,15.63c0,0-9.68-10.61-37.15-9.4S513.91,326.65,513.91,326.65Z" id="elp4r4ol74p8" class="animable" style="transform-origin: 549.71px 317.163px;"></path></g></g><g id="el40b2wjehmy5"><g style="opacity: 0.3; transform-origin: 372.33px 391.694px;" class="animable"><path d="M228.66,404l168,1,50.25-21.88h18L487,402.92h29l-11.8-24.05-52.53-.47a34.28,34.28,0,0,0-14.93,3L392.46,401.9H231Z" id="elafpjyp6u44h" class="animable" style="transform-origin: 372.33px 391.694px;"></path></g></g><path d="M513.91,333.66c-.31-.2-50.66,1.95-50.66,1.95s-3.18,0-3.18,7.6v33.9s15.31,20.22,16.61,20.22h33.1a54.36,54.36,0,0,1-8.52-31.84C502.25,347,513.91,333.66,513.91,333.66Z" style="fill: rgb(38, 50, 56); transform-origin: 486.99px 365.488px;" id="eltjgneagqj9" class="animable"></path><path d="M524.07,403.86c0,.15-26.12.26-58.33.26s-58.34-.11-58.34-.26,26.12-.26,58.34-.26S524.07,403.72,524.07,403.86Z" style="fill: rgb(38, 50, 56); transform-origin: 465.735px 403.86px;" id="elfzxtneaaj6" class="animable"></path><g id="elxl09wfnoazn"><g style="opacity: 0.3; transform-origin: 132.26px 361px;" class="animable"><polygon points="114.87 363.36 149.65 352.27 114.87 369.73 114.87 363.36" id="el28lv50kf3ec" class="animable" style="transform-origin: 132.26px 361px;"></polygon></g></g><path d="M633.71,326.76a2.31,2.31,0,0,1-.53.16l-1.56.35c-1.35.3-3.31.7-5.74,1.17-4.86.92-11.61,2-19.1,3s-14.31,1.52-19.25,1.82c-2.47.15-4.47.25-5.85.3l-1.6,0a1.8,1.8,0,0,1-.55,0,2.47,2.47,0,0,1,.55-.08l1.58-.14,5.84-.46c4.93-.4,11.73-1,19.21-2s14.23-2,19.1-2.84l5.77-1,1.58-.26A2.08,2.08,0,0,1,633.71,326.76Z" style="fill: rgb(38, 50, 56); transform-origin: 606.62px 330.166px;" id="elv3574r9fjio" class="animable"></path><path d="M636,359.77a10.82,10.82,0,0,1-1.35,1.05c-.88.65-2.2,1.54-3.85,2.61A107.32,107.32,0,0,1,602.94,376c-1.88.54-3.42.93-4.5,1.16a9.82,9.82,0,0,1-1.67.32,10.53,10.53,0,0,1,1.62-.51c1.06-.3,2.58-.74,4.45-1.33a123.29,123.29,0,0,0,27.79-12.57c1.67-1,3-1.86,3.93-2.46A9.94,9.94,0,0,1,636,359.77Z" style="fill: rgb(38, 50, 56); transform-origin: 616.385px 368.625px;" id="el1kuhv59ywexh" class="animable"></path><path d="M412.86,291.14c0,.14-13.88.26-31,.26s-31-.12-31-.26,13.89-.26,31-.26S412.86,291,412.86,291.14Z" style="fill: rgb(38, 50, 56); transform-origin: 381.86px 291.14px;" id="elhtpj4wyldsj" class="animable"></path><path d="M427.74,294.14c0,.14-13.06.26-29.18.26s-29.18-.12-29.18-.26,13.06-.26,29.18-.26S427.74,294,427.74,294.14Z" style="fill: rgb(38, 50, 56); transform-origin: 398.56px 294.14px;" id="eld4smj2on2mj" class="animable"></path><path d="M114.7,379.47a7.56,7.56,0,0,0-2.24,1c-1.44.77-3.57,2-6.3,3.73a80.61,80.61,0,0,0-9.67,7.17,26.12,26.12,0,0,0-5.11,5.79,6.12,6.12,0,0,0-1,4,4.9,4.9,0,0,0,2.85,3.3h0l35.49,1.77,22,1.11,5.91.29,3,.16c1,0,2,0,3.06,0l12.64,0-.07.25a45.83,45.83,0,0,1-15.62-16.78,45,45,0,0,1-5.41-24.18,46.88,46.88,0,0,1,.76-6.52c.22-1.08.53-2.15.8-3.23.15-.54.26-1.09.44-1.62l.57-1.58.58-1.59.29-.79L158,351c.49-1,1-2,1.48-3.08a49,49,0,0,1,3.75-5.8,46,46,0,0,1,23.1-16.33,47.76,47.76,0,0,1,14.83-2c1.27.09,2.55.08,3.81.24l3.81.58c1.26.28,2.5.63,3.76.94l.94.25.91.34,1.84.67a46,46,0,0,1,23.7,20.66,45.56,45.56,0,0,1,5.16,15.71,21,21,0,0,1,.28,2.09l.1,2.11.11,2.11-.07,2.13a44.2,44.2,0,0,1-1.18,8.45,46,46,0,0,1-19.81,27.95l-.12-.39,142.91-.4,78.17-.24L486,407c3.42,0,6.83,0,10.27.05,3.41.29,6.84.31,10.29.39,6.88.12,13.8.1,20.75,0l-.14.47a46.19,46.19,0,0,1-19.92-29.62,47,47,0,0,1,.22-18.45,45.6,45.6,0,0,1,7.57-17,46.27,46.27,0,0,1,13.8-12.66,45.76,45.76,0,0,1,17.83-6.11,46.42,46.42,0,0,1,18.92,1.61A45,45,0,0,1,582.23,335a46.75,46.75,0,0,1,12.24,16.83l.9,2.46a19.46,19.46,0,0,1,.82,2.48l.65,2.52c.1.43.24.84.3,1.27l.2,1.29.39,2.58c.14.86.12,1.73.18,2.6l.13,2.6-.08,2.59a45.93,45.93,0,0,1-19.43,34.86l-.15-.47c8.73-.16,17.41-.35,26-.63,4.31-.15,8.62-.31,12.9-.54q3.23-.17,6.42-.39c2.11-.18,4.3-.31,6.32-.68l-.17.18q5.93-21.4,11.73-42.34l.15.3L635.72,360l-.16-.07v-.15c0-1.23.21-2.31.32-3.46l.33-3.4q.31-3.4.45-6.8a95.33,95.33,0,0,0-.33-13.53,48.73,48.73,0,0,0-3-13,21.53,21.53,0,0,0-7.93-10.29l.13,0c-5-.13-9.95-.46-14.88-.95a106.44,106.44,0,0,1-14.59-2.4c-9.36-3-18.72-5.46-28-7.88q-27.93-7.19-54.95-13.24c-18-4-35.65-7.77-52.95-10.91-4.33-.81-8.64-1.49-12.92-2.23s-8.55-1.31-12.81-1.86c-8.49-1.15-16.89-2.18-25.18-3s-16.5-1.37-24.59-1.36a188.42,188.42,0,0,0-23.82,1.77c-3.88.51-7.74,1.06-11.55,1.63-1.91.3-3.82.55-5.69.9s-3.74.75-5.58,1.22a209.7,209.7,0,0,0-21.28,6.8c-13.71,5.13-26.64,10.8-39,16.4-6.16,2.8-12.15,5.61-18,8.38l-8.69,4.1-4.28,2-2.14,1-1.08.45-.55.2a2.46,2.46,0,0,1-.29.09.68.68,0,0,1-.39,0h.05a127.88,127.88,0,0,0-14.1-.12c-4.61.18-9.12.52-13.53.95-8.82.89-17.25,2-25.2,3.59a224.83,224.83,0,0,0-42,12.83,143,143,0,0,0-16.48,8.17,74.18,74.18,0,0,0-12.9,9.31,38.86,38.86,0,0,0-4.71,5.18L113,351l-.44.69c-.29.46-.6.9-.87,1.36a24.71,24.71,0,0,0-1.35,2.8,6.81,6.81,0,0,0-.7,2.81,4.06,4.06,0,0,0,1,2.51,5.47,5.47,0,0,0,2.1,1.49,3.46,3.46,0,0,0,2.35.24l.08,0V363c-.26,10.8-.38,16.16-.39,16.52,0-.36.1-5.72.28-16.52l.07,0a3.54,3.54,0,0,1-2.43-.22,5.44,5.44,0,0,1-2.15-1.52,4.16,4.16,0,0,1-1-2.59,6.78,6.78,0,0,1,.71-2.86,21.33,21.33,0,0,1,1.35-2.82c.26-.46.57-.9.87-1.37l.44-.69.51-.67a39.84,39.84,0,0,1,4.72-5.21A74.24,74.24,0,0,1,131,335.69a141.71,141.71,0,0,1,16.5-8.21c6-2.54,12.56-4.94,19.58-7.13a226.63,226.63,0,0,1,22.46-5.77c8-1.58,16.39-2.72,25.22-3.62,4.41-.43,8.93-.78,13.55-1a126.21,126.21,0,0,1,14.14.12v.1c1.34-.52,2.83-1.16,4.23-1.8l4.27-2,8.69-4.11q8.78-4.15,18-8.39c12.31-5.61,25.24-11.29,39-16.43a208.14,208.14,0,0,1,21.32-6.83q2.76-.71,5.6-1.23c1.89-.35,3.79-.61,5.7-.9,3.82-.57,7.67-1.13,11.56-1.65a188.94,188.94,0,0,1,23.87-1.77c8.11,0,16.33.54,24.63,1.34s16.7,1.85,25.2,3c4.25.54,8.52,1.23,12.82,1.86s8.6,1.41,12.93,2.22c17.32,3.14,35,6.86,53,10.9s36.34,8.43,55,13.22c9.3,2.41,18.72,4.9,28,7.88a106.42,106.42,0,0,0,14.52,2.37c4.91.5,9.87.83,14.84.95h.07l.06,0a22,22,0,0,1,8.12,10.52,49.28,49.28,0,0,1,3,13.15,96.36,96.36,0,0,1,.34,13.6c-.09,2.27-.25,4.55-.45,6.82l-.34,3.41c-.1,1.13-.28,2.31-.31,3.37l-.16-.21L642,362l.21.09-.06.22q-5.8,20.93-11.73,42.33l0,.16-.13,0a62.2,62.2,0,0,1-6.43.7q-3.21.24-6.43.4-6.43.33-12.92.53c-8.63.29-17.32.48-26.05.64h-.84l.69-.48a45.45,45.45,0,0,0,19.2-34.47l.08-2.56-.13-2.58c-.06-.85,0-1.71-.17-2.56l-.39-2.55-.2-1.28c-.06-.42-.2-.83-.3-1.25l-.64-2.5a19.52,19.52,0,0,0-.81-2.45L594,352a46.32,46.32,0,0,0-12.1-16.64,44.61,44.61,0,0,0-16.5-9.17,45.89,45.89,0,0,0-18.7-1.59,45,45,0,0,0-17.64,6,45.72,45.72,0,0,0-13.64,12.52,45.08,45.08,0,0,0-7.48,16.78,46.29,46.29,0,0,0-.22,18.24,45.66,45.66,0,0,0,19.69,29.29l.7.46h-.83c-7,.1-13.88.12-20.77,0-3.44-.08-6.91-.11-10.29-.4-3.42-.05-6.85,0-10.26-.05l-40.49.06-78.17.23-142.91.34h-.74l.62-.4A45.54,45.54,0,0,0,243.9,380a43.49,43.49,0,0,0,1.18-8.38l.07-2.11-.11-2.09-.1-2.09a18,18,0,0,0-.27-2.07,45.23,45.23,0,0,0-5.11-15.58,45.7,45.7,0,0,0-23.49-20.5l-1.82-.66-.91-.34c-.3-.09-.62-.16-.93-.24-1.24-.31-2.48-.67-3.72-.94l-3.78-.58c-1.25-.16-2.52-.15-3.78-.24a47.29,47.29,0,0,0-14.71,1.93,45.77,45.77,0,0,0-22.94,16.19,49.64,49.64,0,0,0-3.73,5.76l-1.47,3-.36.76-.29.79-.58,1.58-.57,1.57c-.18.52-.29,1.07-.44,1.6-.26,1.08-.57,2.14-.79,3.21a47.7,47.7,0,0,0-.77,6.48,44.89,44.89,0,0,0,5.36,24,45.52,45.52,0,0,0,15.51,16.69l.39.25H162.62c-1,0-2.05,0-3.06,0l-3-.15-5.91-.31-22-1.13-35.49-1.84h0a7.31,7.31,0,0,1-1.89-1.4,4,4,0,0,1-1-2,6.34,6.34,0,0,1,1.05-4.15,26.2,26.2,0,0,1,5.15-5.81,79.9,79.9,0,0,1,9.71-7.15C111.59,380.68,114.66,379.27,114.7,379.47Z" style="fill: rgb(38, 50, 56); transform-origin: 366.225px 336.57px;" id="el5iv234xgqpf" class="animable"></path></g><defs>     <filter id="active" height="200%">         <feMorphology in="SourceAlpha" result="DILATED" operator="dilate" radius="2"></feMorphology>                <feFlood flood-color="#32DFEC" flood-opacity="1" result="PINK"></feFlood>        <feComposite in="PINK" in2="DILATED" operator="in" result="OUTLINE"></feComposite>        <feMerge>            <feMergeNode in="OUTLINE"></feMergeNode>            <feMergeNode in="SourceGraphic"></feMergeNode>        </feMerge>    </filter>    <filter id="hover" height="200%">        <feMorphology in="SourceAlpha" result="DILATED" operator="dilate" radius="2"></feMorphology>                <feFlood flood-color="#ff0000" flood-opacity="0.5" result="PINK"></feFlood>        <feComposite in="PINK" in2="DILATED" operator="in" result="OUTLINE"></feComposite>        <feMerge>            <feMergeNode in="OUTLINE"></feMergeNode>            <feMergeNode in="SourceGraphic"></feMergeNode>        </feMerge>            <feColorMatrix type="matrix" values="0   0   0   0   0                0   1   0   0   0                0   0   0   0   0                0   0   0   1   0 "></feColorMatrix>    </filter></defs></svg>